<?xml version="1.0" standalone="no"?>
<!DOCTYPE svg PUBLIC "-//W3C//DTD SVG 20010904//EN"
        "http://www.w3.org/TR/2001/REC-SVG-20010904/DTD/svg10.dtd">
<svg version="1.0" xmlns="http://www.w3.org/2000/svg"
     width="512.000000pt" height="512.000000pt" viewBox="0 0 512.000000 512.000000"
     preserveAspectRatio="xMidYMid meet">
    <metadata>
        Created by potrace 1.14, written by Peter Selinger 2001-2017
    </metadata>
    <g transform="translate(0.000000,512.000000) scale(0.100000,-0.100000)"
       fill="#000000" stroke="none">
        <path d="M2315 4645 c-150 -25 -263 -60 -393 -121 -40 -19 -75 -34 -78 -34 -9
0 -140 -85 -209 -135 -82 -60 -205 -179 -261 -250 -21 -27 -42 -52 -45 -55
-20 -18 -92 -132 -138 -221 l-30 -56 -67 -7 c-496 -51 -908 -408 -1041 -904
-25 -89 -27 -114 -27 -297 -1 -190 0 -205 27 -299 33 -116 72 -215 104 -268
13 -21 23 -40 23 -43 0 -10 79 -123 112 -160 28 -33 29 -37 18 -66 -38 -91 15
-180 105 -177 17 1 40 -2 51 -6 21 -6 22 -12 22 -196 l0 -190 -45 0 c-50 0
-80 -13 -105 -44 -15 -19 -17 -55 -18 -316 0 -197 3 -306 11 -328 13 -39 53
-62 106 -62 53 0 83 -10 83 -26 0 -8 5 -14 10 -14 6 0 10 -7 10 -15 0 -13 14
-15 83 -13 l82 3 0 95 0 95 46 3 c44 3 50 0 98 -47 41 -40 66 -55 119 -71 36
-11 76 -29 87 -39 37 -34 69 -44 145 -47 81 -3 134 13 178 56 19 17 30 21 58
16 20 -4 34 -13 34 -21 0 -8 5 -15 10 -15 6 0 10 -7 10 -15 0 -12 16 -15 80
-15 l80 0 0 95 0 95 39 -39 c45 -45 80 -65 131 -76 19 -4 53 -19 75 -34 57
-40 95 -50 172 -47 75 2 123 22 163 67 25 29 25 29 77 15 28 -8 66 -25 85 -39
43 -33 115 -51 178 -44 51 6 140 49 140 68 0 20 83 0 109 -25 52 -49 121 -59
186 -26 47 24 55 25 55 5 0 -12 16 -15 80 -15 l80 0 0 41 0 41 38 -7 c20 -4
46 -15 57 -25 41 -37 89 -53 164 -56 89 -3 159 19 199 65 26 29 29 30 71 20
25 -5 54 -21 67 -34 28 -30 91 -47 158 -43 54 3 52 1 55 65 1 20 2 21 46 7 25
-7 60 -24 78 -38 86 -65 238 -58 315 14 17 16 30 20 52 15 17 -4 30 -13 30
-21 0 -8 5 -14 10 -14 6 0 10 -7 10 -15 0 -12 16 -15 80 -15 l80 0 0 125 c0
72 5 135 11 149 14 29 68 51 105 42 24 -6 24 -5 24 56 0 47 -5 69 -20 88 -14
17 -20 41 -20 76 0 116 -32 157 -119 157 -25 -1 -99 -1 -163 -1 -118 -1 -170
-14 -180 -44 -4 -10 -8 -10 -20 -1 -70 59 -270 64 -353 9 -21 -14 -24 -13 -40
4 -10 11 -24 20 -31 20 -7 0 -15 13 -19 29 -3 16 -17 39 -31 52 -24 22 -34 24
-134 24 -100 0 -111 -2 -134 -24 -14 -13 -28 -36 -31 -52 -10 -44 -26 -51 -73
-35 -112 40 -274 24 -343 -33 l-34 -29 -40 28 c-109 77 -305 75 -408 -4 l-34
-26 -51 34 c-69 46 -165 64 -254 46 -73 -14 -103 -28 -146 -68 -31 -29 -32
-29 -48 -10 -70 76 -234 107 -351 66 l-42 -15 20 36 c17 32 17 36 3 41 -8 3
-15 10 -14 15 1 5 -7 12 -17 16 -10 4 -14 8 -9 8 5 1 3 8 -4 16 -10 12 -9 16
4 21 9 3 25 4 37 1 19 -5 20 -1 17 68 -1 41 -6 73 -11 72 -5 -1 -11 9 -13 23
-3 22 -2 23 7 7 10 -18 12 -18 33 2 22 20 23 21 39 3 15 -16 15 -18 -2 -18
-12 0 -17 5 -13 15 4 9 1 12 -7 7 -7 -5 -10 -14 -7 -22 3 -7 0 -12 -7 -10 -7
1 -9 1 -5 -1 4 -2 6 -10 4 -16 -1 -7 -1 -9 1 -4 3 4 9 7 14 7 6 0 7 -5 3 -12
-4 -7 -3 -8 4 -4 6 4 9 13 5 21 -8 22 10 18 27 -5 8 -11 18 -20 23 -20 5 0 3
8 -4 17 -12 15 -12 16 3 11 24 -10 30 3 13 28 -13 21 -13 23 0 18 8 -4 15 -12
15 -20 0 -8 5 -14 11 -14 8 0 7 -6 -2 -17 -13 -16 -12 -17 2 -5 10 7 15 21 12
31 -3 11 2 21 13 25 14 5 15 4 5 -8 -7 -8 -10 -20 -6 -26 4 -6 2 -17 -4 -24
-8 -9 -7 -13 4 -13 8 0 13 3 10 5 -3 3 0 11 6 19 9 10 8 13 0 13 -7 0 -9 5 -6
11 5 6 12 4 20 -8 10 -13 10 -20 2 -25 -18 -12 2 -9 24 3 23 12 15 33 -9 24
-9 -3 -13 -3 -9 1 4 4 2 13 -4 21 -9 9 -8 13 0 13 6 0 11 -5 11 -11 0 -5 4 -8
9 -5 5 3 12 -2 15 -11 6 -14 9 -14 30 6 l23 21 18 -20 c15 -17 16 -20 3 -15
-9 4 -19 2 -22 -4 -4 -6 -13 -8 -20 -5 -7 3 -16 -2 -20 -11 -3 -9 -2 -14 3
-10 5 3 11 2 14 -2 2 -5 2 -3 1 4 -2 7 3 10 11 6 8 -3 12 -10 8 -16 -3 -6 -1
-7 5 -3 6 4 9 13 5 21 -8 22 10 18 27 -5 8 -11 18 -20 23 -20 5 0 3 8 -4 17
-12 15 -12 16 3 11 24 -10 30 3 13 28 -13 21 -13 23 0 18 8 -4 15 -12 15 -20
0 -8 5 -14 11 -14 8 0 7 -6 -2 -17 -13 -16 -12 -17 2 -5 10 7 15 21 12 31 -3
11 2 21 13 25 14 5 15 4 5 -8 -7 -8 -10 -20 -6 -26 4 -6 2 -17 -4 -24 -8 -9
-7 -13 4 -13 8 0 13 3 10 5 -3 3 0 11 6 19 9 10 8 13 0 13 -7 0 -9 5 -6 11 5
6 12 4 20 -8 10 -13 10 -20 2 -25 -6 -4 -9 -9 -7 -12 3 -2 16 4 30 15 21 16
21 18 5 13 -17 -5 -18 -4 -5 6 13 10 12 11 -5 5 -11 -3 -16 -3 -12 1 4 4 2 13
-4 21 -9 9 -8 13 0 13 6 0 11 -5 11 -11 0 -5 4 -8 9 -5 5 3 12 -2 15 -11 6
-14 9 -14 30 6 l23 21 18 -20 c14 -16 15 -19 4 -15 -9 3 -22 -1 -29 -10 -9
-11 -9 -15 -1 -15 7 0 9 -5 5 -12 -4 -7 -3 -8 4 -4 6 4 9 13 5 21 -8 22 10 18
27 -5 8 -11 18 -20 23 -20 5 0 3 8 -4 17 -12 15 -12 16 2 11 9 -4 22 -1 28 5
9 9 13 6 18 -12 4 -17 8 -19 14 -9 12 17 11 31 0 23 -5 -3 -13 0 -17 6 -4 8
-3 9 4 5 11 -6 17 6 13 27 -1 4 12 1 28 -8 16 -8 37 -12 45 -9 9 3 16 2 16 -4
0 -12 -53 -10 -62 2 -4 6 -11 7 -15 2 -4 -5 -2 -11 4 -13 10 -3 10 -10 2 -26
-8 -19 -8 -20 3 -7 17 20 53 27 42 8 -4 -7 2 -5 13 4 24 21 40 24 24 4 -9 -11
-9 -16 0 -22 7 -4 9 -3 6 3 -4 6 1 17 10 24 14 12 15 11 8 -11 -7 -24 -7 -24
8 -5 11 14 12 22 4 27 -6 4 -14 5 -17 3 -3 -2 -11 4 -17 14 -9 14 -8 18 3 18
7 0 11 -3 9 -7 -2 -4 6 -12 20 -18 20 -9 25 -8 30 8 7 21 25 28 25 10 0 -5 -4
-10 -10 -10 -5 0 -10 -4 -10 -8 0 -5 7 -9 15 -9 14 0 19 10 16 29 -1 9 33 2
61 -13 13 -7 30 -12 38 -11 13 3 13 2 0 -7 -10 -8 -11 -11 -2 -11 7 0 18 11
24 25 11 25 28 34 28 15 0 -5 -4 -10 -10 -10 -5 0 -10 -4 -10 -8 0 -5 7 -9 15
-9 14 0 19 10 16 29 -1 9 33 2 61 -13 13 -7 30 -12 38 -11 13 3 13 2 0 -7 -10
-8 -11 -11 -2 -11 7 0 18 11 24 25 11 25 28 34 28 15 0 -5 -4 -10 -10 -10 -5
0 -10 -4 -10 -8 0 -5 7 -9 15 -9 14 0 19 10 16 29 -1 9 33 2 61 -13 13 -7 30
-12 38 -11 13 3 13 2 0 -7 -10 -8 -11 -11 -2 -11 7 0 18 11 24 25 11 25 28 34
28 15 0 -5 -4 -10 -10 -10 -5 0 -10 -4 -10 -8 0 -5 7 -9 15 -9 14 0 19 10 16
29 -1 9 33 2 61 -13 13 -7 30 -12 38 -11 13 3 13 2 0 -7 -10 -8 -11 -11 -2
-11 7 0 18 11 24 25 11 25 28 34 28 15 0 -5 -4 -10 -10 -10 -5 0 -10 -4 -10
-8 0 -5 7 -9 15 -9 14 0 19 10 16 29 -1 9 33 2 61 -13 13 -7 30 -12 38 -11 13
3 13 2 0 -7 -10 -8 -11 -11 -2 -11 7 0 18 11 24 25 11 25 28 34 28 15 0 -5 -4
-10 -10 -10 -5 0 -10 -4 -10 -8 0 -5 7 -9 15 -9 14 0 19 10 16 29 -1 9 33 2
61 -13 13 -7 30 -12 38 -11 13 3 13 2 0 -7 -10 -8 -11 -11 -2 -11 7 0 18 11
24 25 11 25 28 34 28 15 0 -5 -4 -10 -10 -10 -5 0 -10 -4 -10 -8 0 -5 7 -9 15
-9 14 0 19 10 16 29 -1 9 33 2 61 -13 13 -7 30 -12 38 -11 13 3 13 2 0 -7 -10
-8 -11 -11 -2 -11 7 0 18 11 24 25 11 25 28 34 28 15 0 -5 -4 -10 -10 -10 -5
0 -10 -4 -10 -8 0 -5 7 -9 15 -9 14 0 19 10 16 29 -1 11 39 0 65 -17 14 -9 25
-11 29 -5 9 15 25 2 18 -15 -3 -8 0 -15 7 -15 6 0 8 -5 4 -12 -4 -7 -3 -8 5
-4 6 4 8 12 5 18 -5 7 -2 9 8 5 24 -9 30 4 13 29 -13 21 -13 23 0 18 8 -4 15
-12 15 -20 0 -8 5 -14 12 -14 6 0 3 -10 -8 -22 l-19 -23 21 18 c13 11 20 26
17 36 -3 11 2 21 12 25 11 4 14 2 8 -7 -4 -6 -8 -22 -8 -34 -1 -18 2 -20 13
-10 9 7 10 13 3 15 -6 2 -8 8 -5 13 3 6 12 2 19 -8 11 -14 10 -19 -2 -28 -12
-9 -13 -12 -2 -12 8 0 23 9 34 19 20 19 20 19 0 13 -17 -6 -18 -5 -5 5 13 10
12 11 -5 5 -11 -3 -16 -3 -12 1 4 4 2 13 -4 21 -9 9 -8 13 0 13 6 0 11 -5 11
-11 0 -5 4 -8 9 -5 5 3 12 -2 15 -11 6 -14 9 -14 30 6 l23 21 18 -20 c18 -20
18 -21 -1 -14 -11 3 -15 2 -9 -3 6 -4 19 -17 30 -28 17 -18 18 -18 12 -1 -5
14 -3 17 8 13 8 -4 17 -2 20 3 4 6 11 10 17 10 6 0 5 -7 -3 -18 -13 -15 -12
-16 4 -3 14 11 15 16 5 30 -7 8 0 6 16 -7 15 -12 33 -19 39 -15 6 4 8 0 4 -11
-4 -11 -3 -15 4 -11 6 4 8 13 5 21 -3 8 0 14 6 14 6 0 8 3 5 6 -4 4 -12 2 -20
-4 -7 -6 -18 -7 -26 -3 -9 6 -10 11 -2 15 6 4 11 2 11 -4 0 -6 5 -8 10 -5 6 4
7 11 4 17 -4 7 -2 8 4 4 7 -4 18 -4 25 1 16 10 55 15 41 6 -6 -5 -13 -16 -17
-26 -4 -10 -11 -15 -17 -12 -16 10 -12 -11 5 -25 13 -11 14 -10 9 6 -4 10 -4
16 1 12 4 -4 14 -3 22 3 15 13 18 -2 3 -17 -7 -7 -6 -11 5 -11 8 0 13 3 10 5
-3 3 0 11 6 19 11 12 2 18 -23 14 -5 0 -8 3 -8 8 0 6 9 9 20 8 21 -1 33 -22
25 -40 -3 -7 2 -2 11 11 9 12 21 22 26 22 5 0 4 -10 -2 -22 l-11 -23 17 22
c17 24 34 30 34 12 0 -5 -4 -7 -10 -4 -5 3 -10 2 -10 -4 0 -5 9 -9 20 -8 13 1
19 6 15 15 -3 7 -5 18 -5 23 0 6 -7 6 -19 0 -14 -8 -22 -7 -32 7 -7 9 -9 14
-5 10 5 -4 15 0 23 10 12 16 13 16 7 -1 -3 -9 -1 -17 5 -17 6 0 11 8 12 18 0
15 1 15 8 -2 9 -24 22 -7 16 22 -2 12 -1 23 3 26 4 2 8 -11 9 -30 1 -19 -2
-34 -8 -34 -5 0 -9 -4 -9 -10 0 -5 6 -7 14 -4 8 3 21 -5 30 -18 9 -12 16 -17
16 -11 0 7 -5 15 -10 18 -6 4 -7 11 -4 17 5 7 2 8 -5 3 -10 -6 -11 -3 -1 14 9
18 14 20 26 10 17 -14 19 2 2 19 -9 9 -9 12 0 12 7 0 12 -4 12 -8 0 -5 7 -9
15 -9 10 0 14 7 10 21 -5 19 -4 19 6 -2 7 -12 17 -22 22 -22 6 0 7 3 4 7 -9 8
24 32 43 32 8 0 5 -4 -8 -10 -13 -5 -21 -13 -18 -18 7 -10 -22 -24 -34 -16
-12 8 -3 -36 10 -49 8 -8 9 -6 4 8 -5 13 -4 17 4 12 8 -5 10 -1 5 10 -4 12 -3
15 5 10 7 -4 12 -2 12 3 0 6 5 10 12 8 6 -1 17 9 24 21 6 13 14 20 17 15 3 -5
2 -15 -4 -23 -12 -20 -11 -30 2 -30 5 0 8 4 5 8 -2 4 -1 14 4 22 10 16 -7 53
-20 45 -6 -3 -7 1 -4 9 5 13 9 12 24 -6 15 -19 20 -20 34 -9 13 11 19 11 33 0
9 -8 14 -9 10 -2 -4 7 1 14 14 18 16 5 18 9 9 15 -18 11 -42 1 -33 -14 3 -6 2
-8 -2 -3 -13 11 -16 45 -5 52 6 3 7 -1 4 -9 -3 -9 -1 -16 5 -16 6 0 11 10 12
23 l0 22 10 -23 c5 -13 13 -20 19 -17 5 3 10 0 10 -7 0 -8 5 -6 11 5 6 10 8
21 5 24 -3 4 -6 1 -6 -6 0 -9 -4 -8 -15 3 -8 8 -15 18 -15 22 0 5 5 3 12 -4 8
-8 17 -8 31 0 17 9 19 8 13 -8 -4 -14 0 -12 15 6 12 14 25 24 29 23 4 -1 6 13
4 32 -1 22 3 35 13 39 8 3 11 10 8 16 -3 5 -1 18 5 27 10 16 10 15 5 -4 -4
-14 0 -25 10 -31 9 -5 15 -12 13 -17 -1 -4 5 -9 16 -11 13 -2 16 0 8 8 -7 7
-8 17 -2 29 7 12 6 20 -2 25 -7 5 -8 3 -3 -6 5 -9 4 -11 -3 -6 -7 4 -12 2 -12
-3 0 -6 -5 -11 -12 -11 -6 0 -2 10 10 22 15 17 18 27 11 41 -7 11 -7 17 1 17
5 0 10 -8 10 -17 0 -13 3 -14 12 -5 7 7 17 12 22 12 6 0 4 -5 -4 -11 -13 -9
-13 -10 0 -6 8 2 23 0 32 -4 11 -6 19 -5 24 3 4 6 3 8 -3 5 -6 -4 -22 2 -34
14 -13 11 -18 18 -11 14 6 -3 12 -1 12 5 0 6 5 8 10 5 6 -4 8 -11 5 -16 -3 -5
1 -6 9 -3 12 5 12 8 -2 23 -9 9 -20 13 -23 8 -3 -5 -9 -8 -13 -8 -20 3 -26 0
-20 -11 4 -7 3 -9 -1 -5 -17 15 -14 36 3 29 15 -5 16 -4 2 14 -14 17 -13 18 1
7 8 -7 25 -11 38 -8 12 2 19 0 16 -5 -3 -5 0 -12 6 -16 8 -4 9 -3 5 4 -4 7 -2
12 3 12 6 0 9 10 7 22 -3 13 -5 28 -5 33 -1 6 -5 3 -11 -5 -5 -8 -12 -11 -16
-7 -10 10 -1 17 29 23 14 2 29 0 32 -6 3 -5 11 -10 17 -10 5 0 0 8 -13 19 -13
10 -30 16 -38 13 -9 -3 -12 -1 -7 6 7 12 46 12 46 0 0 -4 8 -8 17 -8 15 0 14
2 -2 14 -11 8 -23 12 -27 10 -4 -2 -9 -1 -12 4 -7 11 26 12 40 1 7 -5 11 -3
11 6 0 8 -4 12 -9 9 -4 -3 -8 0 -8 6 0 7 -7 10 -15 6 -12 -4 -13 -2 -6 12 11
21 45 62 36 45 -3 -7 -1 -13 5 -13 7 0 10 6 7 13 -6 19 -41 14 -49 -8 -6 -17
-7 -16 -5 5 1 14 8 26 15 26 37 4 37 4 24 13 -11 6 -9 10 7 14 18 4 19 2 10
-14 -5 -11 -6 -19 -1 -19 6 0 11 8 14 18 5 25 2 213 -5 240 -3 12 -2 20 2 18
4 -3 8 8 8 24 0 16 -5 27 -10 23 -5 -3 -4 4 2 15 14 27 14 35 -1 26 -10 -6
-10 -5 -1 8 7 8 10 18 6 22 -9 9 -13 37 -4 32 3 -2 6 20 6 49 0 29 -3 51 -6
49 -4 -2 -9 8 -12 21 -2 14 0 28 4 31 5 3 9 11 9 17 0 8 -3 8 -9 -1 -6 -10
-10 -8 -14 8 -4 17 -2 20 11 16 10 -4 6 3 -8 15 -14 11 -20 18 -13 15 7 -4 6
5 -4 24 -8 17 -16 36 -17 43 -1 7 -5 18 -9 25 -5 6 -6 12 -3 12 14 0 -93 190
-143 253 -194 242 -414 355 -756 389 -31 3 -56 18 -49 30 2 4 -1 10 -6 13 -7
5 -5 12 7 22 17 13 17 14 1 9 -10 -3 -18 -2 -18 3 0 10 31 37 37 33 3 -2 7 -2
9 1 3 2 -3 4 -13 4 -38 0 -45 3 -39 18 3 8 1 15 -5 15 -7 0 -9 10 -5 26 5 17
3 23 -4 19 -5 -3 -10 -2 -10 4 0 5 6 12 13 14 7 3 5 6 -5 6 -11 1 -15 6 -12
16 4 8 11 12 17 8 6 -3 7 -1 3 5 -4 6 -13 9 -21 5 -14 -5 -21 18 -16 56 2 7
-2 10 -8 6 -6 -3 -12 1 -12 9 -2 25 -4 29 -22 64 -10 18 -15 38 -11 45 4 7 4
9 -1 5 -8 -8 -47 65 -48 89 0 7 -4 10 -9 7 -4 -3 -8 0 -8 6 0 6 -13 31 -30 55
-17 24 -30 48 -30 54 0 6 -4 11 -8 11 -4 0 -15 12 -24 28 -28 46 -78 103 -185
209 -198 196 -444 330 -733 400 -90 21 -134 25 -305 28 -139 3 -225 0 -280
-10z m213 -639 c-7 -8 -15 -12 -17 -11 -5 6 10 25 20 25 5 0 4 -6 -3 -14z
m129 -16 c3 0 12 8 20 18 12 15 12 14 3 -8 -7 -16 -20 -26 -33 -27 -12 0 -16
1 -9 4 10 4 9 9 -5 20 -10 8 -12 12 -5 8 6 -3 13 0 13 7 1 7 3 5 6 -4 2 -10 7
-18 10 -18z m-70 13 c-4 -3 -2 -12 4 -19 7 -8 6 -14 -2 -20 -8 -4 -9 -3 -5 4
4 7 5 12 2 12 -3 0 -11 -10 -17 -22 -12 -22 -12 -22 14 -5 25 16 27 16 36 -1
6 -9 10 -12 10 -7 0 6 -6 19 -14 29 -19 25 -19 41 -1 24 8 -7 13 -17 13 -23
-1 -5 6 -9 16 -9 9 1 17 -2 17 -7 0 -5 5 -9 11 -9 5 0 8 4 5 9 -9 14 20 32 40
24 17 -6 18 -5 4 13 -14 17 -14 18 2 6 9 -7 18 -9 20 -5 3 4 3 2 2 -4 -4 -16
8 -17 24 -1 7 7 12 9 12 6 0 -10 -30 -38 -41 -38 -6 0 -8 4 -5 8 3 5 -5 8 -16
7 -27 -2 -35 -20 -13 -29 9 -3 13 -2 10 4 -8 13 1 13 27 -1 15 -8 19 -8 14 0
-5 7 1 10 14 8 12 -2 26 -10 31 -18 5 -8 9 -9 9 -3 0 15 -25 36 -33 27 -4 -3
-7 -4 -7 -1 0 3 10 13 22 24 17 14 19 15 10 2 -12 -15 -11 -17 7 -15 12 1 21
5 21 10 0 4 6 5 13 0 12 -8 17 -9 37 -12 16 -2 12 -18 -5 -18 -8 0 -12 3 -10
7 2 3 -9 6 -25 6 -27 0 -28 -1 -15 -16 18 -20 20 -34 3 -24 -7 4 -9 3 -5 -1 4
-5 14 -10 23 -11 14 -2 13 0 -1 22 -20 30 -3 32 19 2 12 -18 14 -19 9 -4 -4
13 -3 17 5 12 6 -3 13 -2 17 3 6 10 37 7 58 -6 6 -4 18 -8 26 -10 25 -3 37
-23 21 -34 -13 -9 -13 -10 1 -6 9 3 23 0 30 -6 8 -8 8 -5 -1 7 -18 23 -12 21
63 -22 35 -21 54 -38 50 -45 -3 -7 -3 -9 2 -5 11 11 47 -11 39 -24 -4 -6 -3
-8 3 -5 14 9 55 -22 47 -35 -4 -6 -3 -8 3 -5 12 7 79 -63 75 -77 -2 -6 0 -8 4
-4 14 14 104 -110 156 -214 76 -154 98 -260 107 -517 l7 -203 29 -24 c16 -12
31 -22 34 -22 41 4 131 -4 126 -11 -3 -5 -1 -13 5 -16 6 -4 9 -1 8 7 -2 9 8
13 32 13 28 0 35 -4 35 -20 0 -11 5 -19 12 -18 6 1 14 -4 16 -12 4 -9 -1 -13
-13 -12 -18 1 -32 18 -34 41 -1 5 -9 10 -18 12 -15 2 -13 -4 8 -31 24 -32 52
-40 82 -21 6 3 15 -1 20 -10 8 -14 10 -12 10 11 0 20 -3 24 -10 14 -8 -11 -9
-11 -6 -1 2 8 7 13 12 12 5 -1 12 4 17 11 4 8 11 10 16 6 4 -5 3 -11 -2 -15
-15 -11 -17 -40 -4 -48 8 -4 9 -3 5 4 -4 6 0 24 9 39 9 16 13 19 10 8 -11 -33
-10 -37 3 -40 7 -2 8 -1 2 2 -5 2 -7 9 -4 15 4 7 14 1 26 -13 10 -13 16 -17
13 -9 -4 11 2 15 21 16 l26 2 -24 -27 -23 -26 26 23 c14 12 28 19 32 16 4 -4
14 -1 24 7 15 12 16 12 10 -3 -9 -25 -2 -22 16 5 12 19 13 24 2 24 -8 0 -12
-3 -10 -7 2 -4 -2 -7 -10 -7 -19 0 -19 2 1 22 12 12 19 13 30 4 8 -6 11 -15 8
-20 -3 -5 0 -9 6 -9 6 0 9 -4 6 -8 -3 -5 1 -9 9 -9 8 0 12 4 9 9 -8 13 10 10
25 -4 11 -11 12 -10 6 0 -11 21 26 10 50 -13 11 -12 14 -14 8 -5 -18 23 -16
30 5 24 14 -5 14 -4 2 4 -8 6 -18 8 -22 6 -4 -3 -8 0 -8 5 0 6 -5 11 -11 11
-5 0 -8 -4 -5 -8 6 -10 -24 -9 -41 1 -6 4 -13 3 -15 -3 -1 -5 -8 2 -15 16 -10
22 -10 24 3 14 8 -7 14 -9 14 -4 0 5 5 1 11 -9 8 -13 14 -15 30 -7 13 7 25 7
38 1 10 -6 21 -7 25 -4 3 3 6 1 6 -6 0 -7 5 -9 11 -5 8 4 8 0 0 -15 -7 -11
-10 -21 -9 -22 24 -6 38 -5 38 3 0 6 -8 7 -17 3 -14 -5 -15 -4 -6 6 9 9 18 8
38 -5 14 -9 29 -25 32 -34 4 -9 13 -22 21 -28 9 -7 12 -16 7 -24 -5 -8 -4 -11
3 -6 15 9 38 -38 53 -110 37 -181 -91 -368 -276 -404 -93 -17 -3055 -10 -3110
9 -104 34 -242 121 -229 143 5 7 2 8 -5 4 -14 -9 -42 24 -34 38 4 5 2 6 -4 3
-5 -3 -16 3 -24 15 -8 11 -19 26 -25 32 -12 13 -28 48 -26 59 1 4 -2 7 -8 7
-9 0 -35 77 -32 93 1 4 -2 7 -6 7 -4 0 -9 12 -10 27 -1 14 1 23 5 19 7 -6 13
-29 15 -54 1 -8 5 -9 11 -3 7 7 7 15 0 23 -13 18 -11 50 5 55 7 3 10 -1 6 -11
-3 -9 -2 -16 4 -16 14 0 8 33 -6 38 -7 2 -10 8 -7 12 3 5 0 12 -6 16 -7 4 -9
3 -6 -2 3 -5 -3 -10 -13 -10 -10 0 -17 4 -14 7 2 4 -1 11 -7 15 -8 5 -4 13 12
25 19 15 21 19 7 19 -9 0 -20 4 -23 10 -4 6 3 6 21 0 21 -8 25 -8 21 4 -3 7
-1 18 5 24 8 8 8 15 -1 25 -9 12 -7 14 11 13 12 0 24 -8 26 -16 5 -13 3 -13
-11 -1 -23 18 -22 8 1 -12 17 -16 19 -16 19 0 0 10 -4 23 -9 30 -5 7 -5 14 2
18 5 3 10 0 10 -7 0 -8 5 -6 11 5 8 14 7 23 -8 39 -10 12 -12 18 -5 14 6 -4
12 -2 12 4 0 6 4 9 8 6 6 -4 9 40 3 52 -3 6 5 17 12 14 13 -4 7 11 -10 25 -16
13 -16 13 4 4 14 -7 24 -8 28 -1 3 5 2 10 -3 10 -5 0 -9 7 -9 16 0 15 2 14 13
-1 9 -12 10 -22 4 -30 -5 -7 -7 -15 -3 -18 3 -4 1 -7 -6 -7 -7 0 -9 -5 -5 -12
5 -7 2 -8 -7 -3 -8 5 -12 6 -9 2 3 -3 10 -6 15 -7 6 -1 17 -7 25 -13 13 -11
13 -10 0 7 -13 17 -11 21 20 49 20 18 29 32 22 35 -7 2 -9 8 -6 13 3 6 12 5
22 -3 13 -11 14 -11 7 1 -6 11 -4 13 8 8 14 -5 15 -3 4 13 -6 11 -16 20 -22
20 -5 0 1 6 15 13 18 9 24 20 22 37 -2 14 1 21 5 15 11 -14 33 -17 33 -5 0 5
-4 10 -10 10 -5 0 -10 5 -10 11 0 8 5 8 15 -1 12 -10 16 -9 21 3 6 16 28 17
41 1 5 -5 4 -6 -1 -1 -6 4 -16 -3 -23 -15 -7 -14 -12 -17 -13 -9 0 11 -4 9
-15 -5 -8 -10 -15 -15 -15 -10 0 5 -10 -3 -21 -18 -17 -22 -19 -30 -9 -39 10
-9 11 -9 6 1 -4 7 -2 20 5 28 10 13 14 13 29 -1 14 -13 17 -13 17 0 0 8 -5 11
-10 8 -5 -3 -8 0 -5 7 2 7 14 15 27 17 15 2 20 -1 15 -9 -4 -7 -4 -10 0 -6 4
3 8 10 8 15 0 19 20 43 30 37 7 -4 8 -3 4 4 -6 11 6 16 27 13 4 0 7 3 7 9 0 5
5 10 11 10 6 0 9 -6 6 -13 -3 -8 1 -14 8 -14 8 0 11 7 7 15 -4 11 -1 13 8 7 9
-5 11 -4 6 3 -4 7 -2 12 3 12 6 0 11 -4 11 -10 0 -5 5 -10 11 -10 8 0 8 4 0
14 -9 11 -6 17 14 30 14 9 25 12 25 7 0 -6 -8 -15 -17 -20 -10 -6 -13 -10 -8
-10 6 -1 21 9 35 20 14 11 19 18 12 14 -6 -3 -12 -1 -12 5 0 7 6 10 13 7 6 -2
20 10 30 27 15 26 17 27 11 6 -6 -23 -6 -24 11 -10 11 9 16 10 11 3 -10 -17
26 -17 42 -1 7 7 12 8 12 3 0 -6 5 -3 10 5 6 9 10 11 10 3 0 -7 7 -10 18 -6
14 5 13 3 -3 -10 -11 -8 -28 -13 -37 -12 -10 2 -16 0 -13 -4 7 -12 -38 -8 -48
4 -5 6 -7 3 -3 -7 3 -12 0 -18 -9 -18 -9 0 -12 6 -8 18 8 22 -1 14 -16 -15
-10 -20 -9 -21 17 -14 15 5 35 7 44 5 9 -1 22 4 29 12 6 8 15 11 20 8 5 -3 23
5 41 17 17 13 28 18 25 12 -5 -8 2 -11 20 -11 43 1 53 -1 53 -11 0 -11 -43 -9
-53 4 -5 6 -7 3 -3 -7 3 -12 0 -18 -9 -18 -8 0 -14 3 -12 8 1 4 -1 8 -5 10 -5
1 -8 -1 -7 -5 0 -5 -10 -11 -23 -14 -13 -4 5 -6 39 -5 34 1 65 5 69 9 4 4 12
7 18 7 6 0 5 -5 -2 -12 -7 -7 -12 -17 -12 -22 0 -6 7 0 16 12 15 22 44 30 44
12 0 -5 9 -1 20 10 12 12 26 18 33 13 18 -11 38 -13 31 -2 -3 5 -10 6 -16 3
-6 -4 -8 -1 -6 7 3 8 10 13 16 12 7 -2 9 4 5 14 -5 13 -2 15 11 10 11 -4 15
-3 11 4 -4 6 -13 8 -20 5 -8 -3 -17 4 -20 15 -4 10 -11 19 -16 19 -5 0 -9 5
-9 10 0 6 8 5 19 -2 11 -7 17 -17 14 -23 -4 -5 -3 -7 2 -3 4 4 22 0 39 -8 28
-14 29 -14 12 1 -11 8 -23 15 -28 15 -4 0 -8 4 -8 9 0 6 9 8 20 6 11 -2 18 0
15 6 -4 5 -3 15 2 22 13 20 14 49 3 62 -8 9 -8 15 0 20 5 3 10 1 10 -4 0 -6 5
-11 11 -11 6 0 -1 17 -17 37 -15 20 -22 33 -15 29 6 -4 18 -2 26 4 9 8 15 8
15 2 0 -6 -6 -13 -12 -15 -7 -3 -8 -6 -2 -6 5 -1 21 13 33 30 13 18 19 29 12
25 -6 -4 -11 -3 -11 3 0 19 19 21 30 4 7 -12 10 -13 7 -3 -2 8 3 21 12 28 14
11 13 12 -6 2 -18 -8 -24 -7 -32 8 -7 13 -6 23 2 32 10 10 8 12 -5 7 -29 -10
-21 0 14 17 35 18 53 21 25 5 -9 -6 -15 -14 -12 -20 4 -5 2 -9 -3 -9 -5 0 -9
-7 -9 -14 0 -11 5 -12 17 -6 10 5 21 6 26 2 5 -4 0 3 -10 16 -17 19 -10 33 8
15 15 -16 32 -10 31 11 -1 11 2 26 7 33 5 7 6 18 2 24 -5 9 -2 10 10 6 10 -4
15 -3 11 3 -3 6 -2 10 3 10 5 0 9 14 10 31 0 17 7 38 14 47 11 14 11 15 -5 9
-11 -4 -16 -3 -12 4 4 5 16 7 28 3 20 -6 20 -5 8 10 -8 9 -11 19 -7 23 3 3 6
1 6 -6 0 -7 5 -9 10 -6 6 3 10 13 10 21 0 9 -5 12 -12 8 -6 -4 -8 -3 -5 3 6 9
24 10 60 4 4 0 3 -10 -3 -20 -7 -14 -7 -22 2 -27 7 -5 8 -3 3 6 -6 10 -4 12
10 6 14 -5 16 -4 6 7 -9 11 -7 17 6 28 15 12 16 12 10 -6 -7 -20 -7 -20 8 -1
10 13 15 15 15 6 0 -7 3 -10 6 -7 4 4 1 14 -7 24 -12 15 -12 16 3 10 13 -4 16
-1 13 15 -2 11 2 30 9 41 8 12 12 33 10 46 -3 14 -2 22 2 19 3 -3 7 -13 8 -22
1 -9 5 -16 9 -16 4 0 16 0 27 0 20 0 20 1 4 28 l-16 27 21 -25 22 -25 -6 25
c-5 22 -4 23 5 7 11 -18 13 -18 31 -1 15 14 17 20 7 26 -8 6 -4 7 11 3 16 -5
21 -4 17 4 -4 6 -3 11 3 11 5 0 9 -9 8 -20 -1 -13 -6 -19 -15 -15 -8 3 -10 0
-6 -7 5 -7 2 -9 -7 -4 -8 4 -3 -2 10 -13 13 -12 28 -21 35 -21 6 1 0 7 -14 15
-14 8 -22 14 -18 15 3 0 14 3 24 7 10 4 15 2 11 -4 -3 -5 0 -10 8 -10 10 0 12
4 5 12 -5 7 -7 15 -3 19 4 4 1 5 -7 3 -8 -2 -12 -2 -7 0 4 3 5 9 2 13 -3 5 4
14 15 20 12 7 19 18 16 25 -3 8 -2 17 3 19 11 7 10 -27 -2 -41 -6 -9 -6 -13 2
-13 7 0 9 -5 5 -11 -4 -8 -9 -7 -15 2 -4 7 -10 11 -13 8 -3 -2 5 -16 17 -30
12 -13 19 -20 15 -15 -14 18 -8 27 11 16 30 -15 39 -11 11 5 -14 8 -23 15 -20
15 35 8 50 9 46 2 -2 -4 4 -8 14 -9 18 -2 18 -1 2 16 -9 10 -21 15 -27 12 -5
-3 -16 -6 -23 -7 -10 -2 -10 1 -1 12 6 7 16 11 21 7 6 -3 8 0 6 8 -3 8 -11 13
-17 11 -7 -1 -10 2 -7 7 10 16 41 5 41 -15 0 -10 6 -18 13 -16 6 1 12 -3 12
-10 0 -6 6 -3 14 7 8 11 12 23 10 27 -2 4 0 9 6 13 6 4 7 12 4 18 -4 7 -3 8 1
4 13 -11 15 -38 3 -31 -6 4 -5 -2 1 -15 7 -11 17 -21 24 -21 8 0 7 4 -3 10
-18 11 -6 25 15 16 10 -3 13 -11 9 -18 -4 -7 6 -1 23 15 16 15 35 27 43 27 17
0 5 13 -15 16 -9 1 -12 -3 -8 -9 3 -7 2 -8 -2 -4 -21 18 -12 33 19 31 17 -1
32 -2 34 -3 1 0 5 -1 10 -2 4 -1 15 -5 24 -10 10 -6 19 -5 23 1 3 5 -1 10 -9
10 -8 0 -17 4 -20 9 -4 5 2 7 13 4 10 -3 22 0 25 6 4 6 10 11 13 11 4 0 3 -3
0 -7z m-257 -37 c0 -3 -4 -8 -10 -11 -5 -3 -10 -1 -10 4 0 6 5 11 10 11 6 0
10 -2 10 -4z m16 -23 c-2 -15 -10 -27 -18 -29 -14 -2 -14 2 1 27 9 16 17 29
18 29 1 0 0 -12 -1 -27z m100 4 c3 -2 -2 -10 -11 -17 -12 -10 -16 -9 -21 4 -3
9 -10 13 -15 10 -5 -3 -9 0 -9 6 0 9 46 7 56 -3z m-226 -26 c0 -5 -7 -12 -16
-15 -14 -5 -15 -4 -4 9 14 17 20 19 20 6z m-93 -53 c2 -17 0 -19 -7 -8 -5 8
-6 18 -4 22 8 12 10 10 11 -14z m-113 -73 c-4 -8 -11 -12 -16 -9 -6 4 -5 10 3
15 19 12 19 11 13 -6z m-60 -33 c3 -5 -1 -9 -9 -9 -8 0 -12 4 -9 9 3 4 7 8 9
8 2 0 6 -4 9 -8z m42 -24 c-9 -5 -13 -15 -10 -21 4 -7 4 -9 -1 -5 -4 4 -14 3
-21 -3 -9 -8 -15 -5 -24 10 -8 17 -8 19 4 15 8 -3 17 0 21 5 3 6 11 9 16 6 5
-4 9 -1 9 5 0 6 5 8 11 4 8 -5 6 -10 -5 -16z m-149 -63 c0 -8 -4 -12 -9 -9 -5
3 -6 10 -3 15 9 13 12 11 12 -6z m-21 -40 c-3 -8 0 -15 6 -15 6 0 9 -3 5 -6
-10 -11 -26 6 -20 21 3 8 7 15 10 15 3 0 3 -7 -1 -15z m10 -60 c1 -9 -6 -20
-16 -25 -11 -6 -17 -17 -14 -25 4 -8 1 -15 -5 -15 -7 0 -11 -6 -10 -12 3 -25
-1 -41 -8 -34 -5 4 -8 11 -8 15 0 11 -32 41 -38 35 -3 -3 -8 -1 -11 4 -7 11
13 10 31 -1 6 -4 14 -3 18 3 4 6 11 7 17 4 7 -5 8 -2 4 5 -5 7 -15 10 -25 7
-12 -5 -12 -3 3 8 11 9 16 22 12 31 -3 9 -2 14 2 11 4 -2 14 -1 22 4 16 10 23
6 26 -15z m-75 -18 c-10 -9 -11 -8 -5 6 3 10 9 15 12 12 3 -3 0 -11 -7 -18z
m-26 -59 c5 4 5 1 1 -6 -6 -9 -11 -10 -20 -3 -7 6 -17 7 -21 3 -5 -4 -5 -1 -1
6 6 9 11 10 20 3 7 -6 17 -7 21 -3z m-48 -33 c0 -8 -4 -12 -9 -9 -5 3 -6 10
-3 15 9 13 12 11 12 -6z m29 -58 c4 -4 -1 -9 -10 -13 -12 -5 -14 -10 -6 -19 7
-9 7 -15 1 -19 -5 -4 -13 -1 -17 5 -4 8 -9 7 -15 -2 -4 -7 -11 -10 -15 -6 -4
4 2 15 15 23 16 11 19 19 12 28 -8 9 -6 12 9 11 11 -1 23 -4 26 -8z m-108
-112 c-3 -3 -9 2 -12 12 -6 14 -5 15 5 6 7 -7 10 -15 7 -18z m43 -8 c-6 -6 -7
-17 -1 -27 17 -32 -3 -80 -32 -75 -25 5 -37 15 -17 15 12 0 11 2 -1 11 -13 9
-13 10 0 6 8 -2 14 -11 12 -18 -3 -11 -1 -11 9 -2 15 15 -7 47 -27 39 -7 -3
-16 -2 -18 3 -7 11 27 10 42 -2 9 -7 16 -6 25 3 8 8 8 11 1 7 -7 -4 -18 1 -25
10 -12 14 -12 16 0 8 11 -6 13 -3 9 13 -5 16 -2 19 11 14 14 -5 15 -4 1 14
-14 18 -14 18 3 5 12 -9 14 -18 8 -24z m-78 -142 c-3 -10 -1 -15 7 -13 7 2 14
-2 17 -8 5 -15 -64 -56 -73 -43 -4 7 -10 6 -19 -1 -17 -14 -27 1 -14 20 5 8 9
10 9 4 0 -6 7 -11 15 -11 9 0 14 6 11 14 -4 10 -1 11 14 3 10 -5 21 -10 23
-10 7 0 3 22 -6 37 -6 9 -1 14 20 22 1 1 0 -6 -4 -14z m-378 -33 c-3 -3 -11 0
-18 7 -9 10 -8 11 6 5 10 -3 15 -9 12 -12z m-46 -35 c6 10 11 13 11 6 0 -15
-58 -59 -72 -55 -6 1 -25 -6 -43 -17 -29 -17 -34 -17 -39 -5 -3 9 -11 12 -17
8 -7 -4 -9 -3 -5 4 3 6 19 9 36 7 19 -3 28 0 26 8 -1 7 -1 9 1 5 3 -5 9 -8 14
-8 6 0 8 4 5 9 -3 4 1 17 10 27 14 18 15 18 4 -3 -13 -27 -3 -30 16 -5 8 10
13 12 14 5 0 -7 5 -13 10 -13 7 0 7 7 0 23 -10 20 -10 21 4 4 14 -18 15 -18
25 0z m-124 -16 c3 -5 2 -12 -3 -15 -5 -3 -9 1 -9 9 0 17 3 19 12 6z m-134
-134 c-10 -9 -11 -8 -5 6 3 10 9 15 12 12 3 -3 0 -11 -7 -18z m-29 -16 c-4
-10 -7 -11 -10 -3 -2 7 -9 9 -14 6 -6 -4 -8 -3 -5 3 10 16 36 11 29 -6z m4
-24 c8 3 14 0 14 -7 0 -6 -4 -9 -9 -5 -5 3 -12 1 -16 -4 -8 -14 -42 -9 -42 6
0 10 4 10 11 3 17 -17 29 -11 15 8 -11 14 -11 15 0 5 7 -6 20 -9 27 -6z m-16
-45 c0 -5 -10 -17 -22 -28 -13 -10 -18 -12 -11 -5 6 7 9 20 6 27 -3 8 1 14 11
14 9 0 16 -4 16 -8z m-100 -58 c0 -8 -19 -13 -24 -6 -3 5 1 9 9 9 8 0 15 -2
15 -3z m9 -40 c-6 -8 -17 -14 -23 -14 -6 0 -3 7 6 14 10 7 14 17 10 21 -4 5
-1 5 6 1 10 -6 10 -11 1 -22z m-46 -29 c-3 -9 -8 -14 -10 -11 -3 3 -2 9 2 15
9 16 15 13 8 -4z m46 -38 c0 -8 -2 -7 -6 2 -4 11 -7 11 -13 0 -5 -7 -18 -14
-30 -16 -17 -2 -19 -1 -8 11 10 10 15 11 21 2 5 -6 7 -2 4 11 -4 20 -2 21 14
12 10 -5 19 -15 18 -22z m3144 -3 c-5 -15 -3 -15 23 1 l29 17 -28 -22 c-15
-12 -25 -26 -21 -31 3 -5 1 -9 -4 -9 -6 0 -13 7 -16 16 -3 8 -11 12 -17 8 -8
-4 -9 -3 -5 5 4 6 11 9 16 6 4 -3 10 2 14 10 3 8 8 15 10 15 3 0 3 -7 -1 -16z
m156 -10 c-10 -12 -8 -14 11 -12 15 2 24 -3 25 -14 3 -19 -10 -24 -20 -9 -3 6
-19 8 -35 6 -34 -4 -47 17 -22 37 15 12 16 11 3 -4 -15 -20 -9 -23 20 -7 11 5
16 15 13 21 -4 7 -2 8 5 4 9 -6 9 -11 0 -22z m61 16 c-8 -5 -19 -10 -25 -10
-5 0 -3 5 5 10 8 5 20 10 25 10 6 0 3 -5 -5 -10z m-3430 -57 c0 -5 -5 -15 -10
-23 -7 -12 -9 -10 -7 8 1 19 17 33 17 15z m-2 -139 c-1 -5 -9 -9 -16 -10 -10
-2 -11 1 -1 12 12 14 24 13 17 -2z m4412 -406 c0 -4 -4 -8 -9 -8 -6 0 -12 4
-15 8 -3 5 1 9 9 9 8 0 15 -4 15 -9z m6 -66 c-2 -9 -8 -17 -15 -18 -6 -1 -7 0
-2 2 6 3 7 12 4 20 -3 7 -10 11 -16 7 -6 -3 -7 -1 -3 5 10 16 34 4 32 -16z
m-36 -28 c0 -8 -19 -13 -24 -6 -3 5 1 9 9 9 8 0 15 -2 15 -3z m-40 -118 c0 -3
-4 -8 -10 -11 -5 -3 -10 -1 -10 4 0 6 5 11 10 11 6 0 10 -2 10 -4z m-50 -108
c0 -4 -4 -8 -9 -8 -6 0 -12 4 -15 8 -3 5 1 9 9 9 8 0 15 -4 15 -9z m37 -2 c0
-8 -6 -12 -15 -9 -11 5 -11 7 0 14 7 5 13 9 14 9 0 0 1 -6 1 -14z m-210 -193
c-5 -8 17 -34 25 -30 2 1 0 -2 -4 -7 -12 -15 -55 -16 -55 -2 0 8 8 11 21 8 18
-5 19 -3 9 10 -7 8 -10 18 -6 21 9 9 15 9 10 0z m-62 -23 c3 -5 1 -10 -4 -10
-6 0 -11 5 -11 10 0 6 2 10 4 10 3 0 8 -4 11 -10z m-140 -88 c-3 -3 -11 0 -18
7 -9 10 -8 11 6 5 10 -3 15 -9 12 -12z m81 -4 c-3 -13 -5 -24 -5 -26 -1 -2 -6
0 -11 3 -8 5 -8 11 -1 19 6 7 8 16 4 19 -3 4 -1 7 5 7 7 0 10 -10 8 -22z
m-3886 -164 c0 -118 -1 -124 -21 -124 -19 0 -20 5 -18 147 2 144 2 146 21 124
15 -20 18 -42 18 -147z m3790 141 c0 -2 -10 -9 -22 -15 -22 -11 -22 -10 -4 4
21 17 26 19 26 11z m30 -39 c0 -11 -19 -15 -25 -6 -3 5 1 10 9 10 9 0 16 -2
16 -4z m-2212 -51 c-3 -3 -9 2 -12 12 -6 14 -5 15 5 6 7 -7 10 -15 7 -18z
m304 18 c-6 -2 -9 -10 -6 -15 4 -7 2 -8 -5 -4 -13 9 -5 26 12 25 9 0 8 -2 -1
-6z m160 0 c-6 -2 -9 -10 -6 -15 4 -7 2 -8 -5 -4 -13 9 -5 26 12 25 9 0 8 -2
-1 -6z m160 0 c-6 -2 -9 -10 -6 -15 4 -7 2 -8 -5 -4 -13 9 -5 26 12 25 9 0 8
-2 -1 -6z m160 0 c-6 -2 -9 -10 -6 -15 4 -7 2 -8 -5 -4 -13 9 -5 26 12 25 9 0
8 -2 -1 -6z m160 0 c-6 -2 -9 -10 -6 -15 4 -7 2 -8 -5 -4 -13 9 -5 26 12 25 9
0 8 -2 -1 -6z m160 0 c-6 -2 -9 -10 -6 -15 4 -7 2 -8 -5 -4 -13 9 -5 26 12 25
9 0 8 -2 -1 -6z m160 0 c-6 -2 -9 -10 -6 -15 4 -7 2 -8 -5 -4 -13 9 -5 26 12
25 9 0 8 -2 -1 -6z m160 0 c-6 -2 -9 -10 -6 -15 4 -7 2 -8 -5 -4 -13 9 -5 26
12 25 9 0 8 -2 -1 -6z m373 -3 c4 -6 -1 -7 -11 -3 -13 5 -15 3 -9 -7 5 -9 4
-11 -4 -6 -6 4 -9 12 -6 17 8 12 22 12 30 -1z m125 0 c0 -5 -5 -10 -11 -10 -5
0 -7 5 -4 10 3 6 8 10 11 10 2 0 4 -4 4 -10z m-2449 -23 c16 -21 16 -23 -1
-23 -10 0 -16 4 -13 9 2 4 -1 14 -7 22 -7 8 -9 15 -4 15 5 0 16 -11 25 -23z
m240 0 c16 -21 16 -23 -1 -23 -10 0 -16 4 -13 9 2 4 -1 14 -7 22 -7 8 -9 15
-4 15 5 0 16 -11 25 -23z m237 2 c7 -12 16 -18 19 -15 3 3 0 12 -7 21 -11 13
-10 14 4 9 24 -9 16 -37 -11 -39 -12 -1 -20 2 -17 7 3 5 0 15 -6 23 -7 8 -8
15 -4 15 5 0 15 -9 22 -21z m139 15 c-3 -3 -12 -4 -19 -1 -8 3 -5 6 6 6 11 1
17 -2 13 -5z m1384 -17 c16 -21 16 -23 -1 -23 -10 0 -16 4 -13 9 2 4 -1 14 -7
22 -7 8 -9 15 -4 15 5 0 16 -11 25 -23z m237 2 c7 -12 16 -18 19 -15 3 3 0 12
-7 21 -11 13 -10 14 4 9 24 -9 16 -37 -11 -39 -12 -1 -20 2 -17 7 3 5 0 15 -6
23 -7 8 -8 15 -4 15 5 0 15 -9 22 -21z m235 6 c4 -8 3 -16 -1 -19 -4 -3 -9 4
-9 15 -2 23 3 25 10 4z m-3249 -259 c5 -10 23 -24 40 -32 l31 -14 -30 4 c-16
2 -40 5 -52 5 -21 1 -22 5 -22 74 0 39 3 95 7 122 6 46 7 42 12 -45 3 -52 10
-103 14 -114z m296 -42 c0 -2 -9 -4 -21 -4 -11 0 -18 4 -14 10 5 8 35 3 35 -6z
m-430 -3 c0 -5 -14 -14 -31 -20 -40 -14 -39 -14 -39 3 0 8 12 17 28 19 15 2
30 5 35 6 4 0 7 -3 7 -8z m290 -1 c0 -5 7 -10 15 -10 8 0 15 -9 15 -20 0 -11
-1 -20 -3 -20 -1 0 -20 9 -42 20 -22 11 -46 21 -55 21 -12 1 19 10 63 18 4 0
7 -3 7 -9z"/>
        <path d="M2487 3969 c6 -6 9 -18 6 -27 -4 -10 -2 -13 5 -8 18 11 14 33 -5 41
-14 5 -15 3 -6 -6z"/>
        <path d="M2530 3952 c6 -13 14 -21 18 -18 3 4 -2 14 -12 24 -18 16 -18 16 -6
-6z"/>
        <path d="M2599 3948 c-5 -18 -6 -38 -1 -34 7 8 12 36 6 36 -2 0 -4 -1 -5 -2z"/>
        <path d="M2909 3932 c5 -10 10 -21 11 -27 1 -5 3 -12 5 -14 2 -2 2 9 -1 24 -4
25 -3 27 11 15 10 -8 15 -9 15 -1 0 6 -3 11 -7 12 -5 0 -16 2 -25 4 -14 2 -16
-1 -9 -13z"/>
        <path d="M2775 3929 c-4 -6 -5 -12 -2 -15 2 -3 7 2 10 11 7 17 1 20 -8 4z"/>
        <path d="M2499 3913 c-12 -16 -12 -17 2 -5 9 7 25 10 35 6 16 -5 16 -4 4 5
-20 15 -25 14 -41 -6z"/>
        <path d="M2965 3920 c-3 -5 -1 -10 4 -10 6 0 11 5 11 10 0 6 -2 10 -4 10 -3 0
-8 -4 -11 -10z"/>
        <path d="M2350 3885 c0 -8 2 -15 4 -15 2 0 6 7 10 15 3 8 1 15 -4 15 -6 0 -10
-7 -10 -15z"/>
        <path d="M2396 3878 c3 -5 10 -6 15 -3 13 9 11 12 -6 12 -8 0 -12 -4 -9 -9z"/>
        <path d="M3096 3838 c3 -5 10 -6 15 -3 13 9 11 12 -6 12 -8 0 -12 -4 -9 -9z"/>
        <path d="M2134 3826 c-3 -9 -10 -14 -14 -11 -4 3 -13 -2 -19 -9 -7 -8 -23 -13
-36 -11 -14 1 -22 -1 -20 -5 3 -5 -3 -11 -12 -14 -12 -5 -13 -10 -5 -18 7 -7
19 -4 41 11 17 12 35 19 41 16 6 -4 7 1 3 12 -6 16 -4 16 18 -2 13 -11 18 -13
12 -4 -10 12 -10 18 -1 27 6 6 9 15 5 18 -4 4 -9 -1 -13 -10z m-79 -56 c-3 -5
-12 -10 -18 -10 -7 0 -6 4 3 10 19 12 23 12 15 0z"/>
        <path d="M2150 3806 c0 -2 7 -7 16 -10 8 -3 12 -2 9 4 -6 10 -25 14 -25 6z"/>
        <path d="M2055 3740 c-3 -6 1 -7 9 -4 18 7 21 14 7 14 -6 0 -13 -4 -16 -10z"/>
        <path d="M2030 3726 c0 -8 4 -17 9 -20 5 -4 7 3 4 14 -6 23 -13 26 -13 6z"/>
        <path d="M1905 3678 c-4 -13 -6 -30 -6 -39 1 -10 -5 -16 -15 -15 -12 1 -18 -7
-19 -26 -1 -15 2 -25 6 -22 4 2 6 14 4 25 -3 15 0 19 11 15 9 -4 18 3 24 17 5
12 9 16 9 8 1 -8 4 -11 7 -8 4 4 1 13 -6 22 -8 10 -9 15 -1 15 6 0 11 7 11 15
0 23 -17 18 -25 -7z"/>
        <path d="M1720 3340 c-8 -5 -12 -12 -9 -15 4 -3 12 1 19 10 14 17 11 19 -10 5z"/>
        <path d="M1710 3279 c0 -5 5 -7 10 -4 6 3 10 8 10 11 0 2 -4 4 -10 4 -5 0 -10
-5 -10 -11z"/>
        <path d="M1630 3099 c0 -5 5 -7 10 -4 6 3 10 8 10 11 0 2 -4 4 -10 4 -5 0 -10
-5 -10 -11z"/>
        <path d="M1315 3049 c-4 -6 -5 -12 -2 -15 2 -3 7 2 10 11 7 17 1 20 -8 4z"/>
        <path d="M1551 3044 c0 -11 3 -14 6 -6 3 7 2 16 -1 19 -3 4 -6 -2 -5 -13z"/>
        <path d="M1496 3034 c-5 -13 -4 -14 7 -6 8 7 18 8 22 4 5 -4 5 -1 1 6 -10 17
-23 15 -30 -4z"/>
        <path d="M1188 3023 c7 -3 16 -2 19 1 4 3 -2 6 -13 5 -11 0 -14 -3 -6 -6z"/>
        <path d="M930 2900 c0 -5 5 -10 11 -10 5 0 7 5 4 10 -3 6 -8 10 -11 10 -2 0
-4 -4 -4 -10z"/>
        <path d="M859 2818 c-5 -19 -8 -50 -4 -46 7 7 15 48 9 48 -2 0 -4 -1 -5 -2z"/>
        <path d="M791 2738 c3 -28 -1 -39 -13 -32 -7 4 -9 3 -5 -1 17 -19 32 -11 32
16 1 16 -3 29 -8 29 -4 0 -7 -6 -6 -12z"/>
        <path d="M779 2663 c0 -5 -2 -16 -4 -26 -2 -11 -1 -16 3 -13 8 8 14 46 7 46
-3 0 -5 -3 -6 -7z"/>
        <path d="M3776 2613 c-6 -14 -5 -15 5 -6 7 7 10 15 7 18 -3 3 -9 -2 -12 -12z"/>
        <path d="M4137 2605 c-4 -8 -3 -16 1 -19 4 -3 9 4 9 15 2 23 -3 25 -10 4z"/>
        <path d="M706 2602 c-3 -6 -1 -14 5 -17 15 -10 25 3 12 16 -7 7 -13 7 -17 1z"/>
        <path d="M4230 2600 c0 -5 5 -10 11 -10 5 0 7 5 4 10 -3 6 -8 10 -11 10 -2 0
-4 -4 -4 -10z"/>
        <path d="M3885 2580 c-3 -6 1 -7 9 -4 18 7 21 14 7 14 -6 0 -13 -4 -16 -10z"/>
        <path d="M681 2549 c-20 -17 -13 -38 9 -24 5 3 20 1 32 -5 21 -10 21 -10 6 3
-21 17 -23 28 -5 23 6 -1 9 -1 4 1 -4 3 -5 8 -3 12 9 15 -21 7 -43 -10z m29 7
c0 -2 -8 -10 -17 -17 -16 -13 -17 -12 -4 4 13 16 21 21 21 13z"/>
        <path d="M4336 2558 c3 -5 10 -6 15 -3 13 9 11 12 -6 12 -8 0 -12 -4 -9 -9z"/>
        <path d="M715 2360 c-3 -5 -2 -17 3 -26 8 -15 10 -15 15 0 5 12 3 15 -5 10 -8
-5 -9 -2 -5 9 7 19 2 23 -8 7z"/>
        <path d="M1959 3723 c-13 -16 -12 -17 4 -4 16 13 21 21 13 21 -2 0 -10 -8 -17
-17z"/>
        <path d="M1814 3582 c-6 -4 -14 -16 -17 -27 -7 -18 -6 -19 6 -3 8 10 16 16 19
13 2 -3 5 2 5 10 0 8 -1 15 -1 15 -1 0 -6 -4 -12 -8z"/>
        <path d="M4099 3473 c-13 -16 -12 -17 4 -4 9 7 17 15 17 17 0 8 -8 3 -21 -13z"/>
        <path d="M4110 3379 c0 -5 5 -7 10 -4 6 3 10 8 10 11 0 2 -4 4 -10 4 -5 0 -10
-5 -10 -11z"/>
        <path d="M4126 3362 c-3 -5 1 -9 9 -9 8 0 12 4 9 9 -3 4 -7 8 -9 8 -2 0 -6 -4
-9 -8z"/>
        <path d="M5065 1889 c-4 -5 2 -12 12 -16 10 -3 20 -7 23 -9 3 -1 6 5 6 15 0
18 -32 26 -41 10z"/>
        <path d="M5030 1783 c0 -4 5 -15 10 -23 8 -13 10 -13 10 2 0 9 -4 20 -10 23
-5 3 -10 3 -10 -2z"/>
        <path d="M5030 1709 c0 -5 5 -7 10 -4 6 3 10 8 10 11 0 2 -4 4 -10 4 -5 0 -10
-5 -10 -11z"/>
        <path d="M4934 1648 c-4 -6 -3 -8 4 -4 5 3 12 1 14 -6 3 -8 6 -9 11 -1 4 6 0
13 -8 17 -8 3 -17 0 -21 -6z"/>
        <path d="M4952 1600 c0 -14 2 -19 5 -12 2 6 2 18 0 25 -3 6 -5 1 -5 -13z"/>
        <path d="M4871 1586 c-8 -9 -8 -16 -2 -20 6 -4 9 -12 7 -19 -1 -7 -1 -9 1 -4
3 4 9 5 13 2 5 -3 7 7 4 22 -7 35 -9 37 -23 19z"/>
        <path d="M4836 1493 c-6 -14 -5 -15 5 -6 7 7 10 15 7 18 -3 3 -9 -2 -12 -12z"/>
        <path d="M4794 1459 c-3 -6 -2 -15 3 -20 5 -5 9 -1 9 11 0 23 -2 24 -12 9z"/>
        <path d="M4679 1393 c-13 -17 -13 -17 6 -3 11 8 22 16 24 17 2 2 0 3 -6 3 -6
0 -17 -8 -24 -17z"/>
        <path d="M4706 1378 c3 -5 10 -6 15 -3 13 9 11 12 -6 12 -8 0 -12 -4 -9 -9z"/>
        <path d="M4516 1354 c-5 -13 -9 -14 -21 -4 -10 9 -15 9 -15 1 0 -6 5 -11 11
-11 5 0 8 -4 4 -9 -3 -5 -1 -13 5 -16 6 -4 10 -3 9 2 -4 22 2 25 17 7 15 -19
15 -19 6 1 -5 11 -7 26 -5 33 7 18 -4 15 -11 -4z"/>
        <path d="M4599 1348 c-5 -18 -6 -38 -1 -34 7 8 12 36 6 36 -2 0 -4 -1 -5 -2z"/>
        <path d="M2057 1333 c-4 -3 -7 -11 -7 -17 0 -6 5 -5 12 2 6 6 9 14 7 17 -3 3
-9 2 -12 -2z"/>
        <path d="M2282 1313 c-12 -15 -22 -32 -21 -38 0 -5 3 -4 6 4 5 11 7 11 15 0 8
-11 9 -11 5 1 -2 8 2 23 11 33 8 9 13 19 10 22 -2 3 -14 -7 -26 -22z"/>
        <path d="M2624 1309 c-8 -17 -13 -33 -10 -37 3 -3 6 0 6 6 0 16 37 15 44 0 3
-7 3 -3 0 10 -5 21 -4 22 14 11 12 -7 19 -16 17 -19 -2 -4 9 -6 25 -6 17 0 28
2 25 4 -3 3 3 11 13 19 13 10 14 13 2 11 -8 -2 -21 -10 -27 -18 -11 -13 -15
-13 -29 5 -8 11 -20 19 -25 18 -5 -2 -9 1 -9 6 0 5 -7 11 -15 15 -10 3 -20 -5
-31 -25z m31 0 c-4 -5 -12 -9 -18 -8 -9 0 -8 2 1 6 6 2 9 10 6 15 -4 7 -2 8 5
4 6 -4 9 -12 6 -17z"/>
        <path d="M2784 1309 c-8 -17 -13 -33 -10 -37 3 -3 6 0 6 6 0 16 37 15 44 0 3
-7 3 -3 0 10 -5 21 -4 22 14 11 12 -7 19 -16 17 -19 -2 -4 9 -6 25 -6 17 0 28
2 25 4 -3 3 3 11 13 19 13 10 14 13 2 11 -8 -2 -21 -10 -27 -18 -11 -13 -15
-13 -29 5 -8 11 -20 19 -25 18 -5 -2 -9 1 -9 6 0 5 -7 11 -15 15 -10 3 -20 -5
-31 -25z m31 0 c-4 -5 -12 -9 -18 -8 -9 0 -8 2 1 6 6 2 9 10 6 15 -4 7 -2 8 5
4 6 -4 9 -12 6 -17z"/>
        <path d="M2944 1309 c-8 -17 -13 -33 -10 -37 3 -3 6 0 6 6 0 16 37 15 44 0 3
-7 3 -3 0 10 -5 21 -4 22 14 11 12 -7 19 -16 17 -19 -2 -4 9 -6 25 -6 17 0 28
2 25 4 -3 3 3 11 13 19 13 10 14 13 2 11 -8 -2 -21 -10 -27 -18 -11 -13 -15
-13 -29 5 -8 11 -20 19 -25 18 -5 -2 -9 1 -9 6 0 5 -7 11 -15 15 -10 3 -20 -5
-31 -25z m31 0 c-4 -5 -12 -9 -18 -8 -9 0 -8 2 1 6 6 2 9 10 6 15 -4 7 -2 8 5
4 6 -4 9 -12 6 -17z"/>
        <path d="M3104 1309 c-8 -17 -13 -33 -10 -37 3 -3 6 0 6 6 0 16 37 15 44 0 3
-7 3 -3 0 10 -5 21 -4 22 14 11 12 -7 19 -16 17 -19 -2 -4 9 -6 25 -6 17 0 28
2 25 4 -3 3 3 11 13 19 13 10 14 13 2 11 -8 -2 -21 -10 -27 -18 -11 -13 -15
-13 -29 5 -8 11 -20 19 -25 18 -5 -2 -9 1 -9 6 0 5 -7 11 -15 15 -10 3 -20 -5
-31 -25z m31 0 c-4 -5 -12 -9 -18 -8 -9 0 -8 2 1 6 6 2 9 10 6 15 -4 7 -2 8 5
4 6 -4 9 -12 6 -17z"/>
        <path d="M3264 1309 c-8 -17 -13 -33 -10 -37 3 -3 6 0 6 6 0 16 37 15 44 0 3
-7 3 -3 0 10 -5 21 -4 22 14 11 12 -7 19 -16 17 -19 -2 -4 9 -6 25 -6 17 0 28
2 25 4 -3 3 3 11 13 19 13 10 14 13 2 11 -8 -2 -21 -10 -27 -18 -11 -13 -15
-13 -29 5 -8 11 -20 19 -25 18 -5 -2 -9 1 -9 6 0 5 -7 11 -15 15 -10 3 -20 -5
-31 -25z m31 0 c-4 -5 -12 -9 -18 -8 -9 0 -8 2 1 6 6 2 9 10 6 15 -4 7 -2 8 5
4 6 -4 9 -12 6 -17z"/>
        <path d="M3424 1309 c-8 -17 -13 -33 -10 -37 3 -3 6 0 6 6 0 16 37 15 44 0 3
-7 3 -3 0 10 -5 21 -4 22 14 11 12 -7 19 -16 17 -19 -2 -4 2 -7 10 -7 11 0 10
5 -2 24 -8 12 -19 20 -24 17 -5 -3 -9 -1 -9 4 0 6 -7 12 -15 16 -10 3 -20 -5
-31 -25z m31 0 c-4 -5 -12 -9 -18 -8 -9 0 -8 2 1 6 6 2 9 10 6 15 -4 7 -2 8 5
4 6 -4 9 -12 6 -17z"/>
        <path d="M3585 1311 c-8 -16 -20 -31 -27 -34 -9 -4 -9 -6 -1 -6 6 -1 15 4 18
9 9 15 48 13 39 -2 -4 -7 -4 -10 1 -6 4 4 15 2 24 -4 12 -10 12 -8 -1 8 -26
30 -22 37 8 17 27 -17 27 -17 15 5 -7 12 -16 20 -22 17 -5 -4 -9 -2 -9 3 0 25
-31 20 -45 -7z m30 -2 c-4 -5 -12 -9 -18 -8 -9 0 -8 2 1 6 6 2 9 10 6 15 -4 7
-2 8 5 4 6 -4 9 -12 6 -17z"/>
        <path d="M3744 1309 c-8 -17 -13 -33 -10 -37 3 -3 6 0 6 6 0 16 37 15 44 0 3
-7 3 -3 0 10 -5 21 -4 22 14 11 12 -7 19 -16 17 -19 -2 -3 5 -6 15 -7 17 -2
17 0 -3 20 -12 12 -25 21 -29 20 -5 -2 -8 1 -8 6 0 5 -7 11 -15 15 -10 3 -20
-5 -31 -25z m31 0 c-4 -5 -12 -9 -18 -8 -9 0 -8 2 1 6 6 2 9 10 6 15 -4 7 -2
8 5 4 6 -4 9 -12 6 -17z"/>
        <path d="M4055 1330 c-3 -5 -3 -15 1 -22 5 -7 3 -8 -6 -3 -13 8 -32 -13 -24
-27 9 -14 26 -8 20 7 -5 13 -2 14 15 4 18 -9 19 -8 11 8 -5 10 -7 24 -5 31 6
14 -3 16 -12 2z"/>
        <path d="M4255 1331 c-3 -5 -1 -12 5 -16 5 -3 10 1 10 9 0 18 -6 21 -15 7z"/>
        <path d="M2572 1290 c-8 -13 -7 -17 4 -17 8 0 12 3 9 5 -3 3 3 10 11 17 14 10
14 12 2 12 -9 0 -20 -8 -26 -17z"/>
        <path d="M3536 1293 c-4 -11 -1 -11 14 -3 24 13 25 17 5 17 -8 0 -16 -6 -19
-14z"/>
        <path d="M3683 1283 c-12 -13 -18 -23 -13 -23 5 0 12 5 15 10 4 6 12 7 18 4 7
-4 9 -4 5 1 -4 4 0 13 8 20 13 9 13 12 3 11 -8 0 -24 -11 -36 -23z"/>
        <path d="M4440 1306 c0 -2 7 -7 16 -10 8 -3 12 -2 9 4 -6 10 -25 14 -25 6z"/>
        <path d="M4180 1282 c0 -5 7 -9 15 -9 8 0 12 4 9 9 -3 4 -9 8 -15 8 -5 0 -9
-4 -9 -8z"/>
        <path d="M3580 1266 c0 -2 7 -7 16 -10 8 -3 12 -2 9 4 -6 10 -25 14 -25 6z"/>
        <path d="M3915 1261 c-3 -5 -2 -12 3 -15 5 -3 9 1 9 9 0 17 -3 19 -12 6z"/>
        <path d="M4335 1260 c3 -5 8 -10 11 -10 2 0 4 5 4 10 0 6 -5 10 -11 10 -5 0
-7 -4 -4 -10z"/>
        <path d="M4396 1242 c-3 -5 1 -9 9 -9 8 0 12 4 9 9 -3 4 -7 8 -9 8 -2 0 -6 -4
-9 -8z"/>
    </g>
</svg>
