<?xml version="1.0" standalone="no"?>
<!DOCTYPE svg PUBLIC "-//W3C//DTD SVG 20010904//EN"
        "http://www.w3.org/TR/2001/REC-SVG-20010904/DTD/svg10.dtd">
<svg version="1.0" xmlns="http://www.w3.org/2000/svg"
     width="512.000000pt" height="512.000000pt" viewBox="0 0 512.000000 512.000000"
     preserveAspectRatio="xMidYMid meet">

    <g transform="translate(0.000000,512.000000) scale(0.100000,-0.100000)"
       fill="#000000" stroke="none">
        <path d="M863 5102 c-100 -35 -171 -115 -193 -216 -8 -36 -10 -710 -8 -2356
l3 -2305 21 -46 c31 -66 78 -114 142 -146 l57 -28 1675 0 1675 0 57 28 c64 32
111 80 142 146 l21 46 0 2335 0 2335 -21 46 c-31 66 -78 114 -142 146 l-57 28
-1660 2 c-1573 2 -1663 2 -1712 -15z m3346 -196 c15 -8 32 -26 39 -41 17 -38
17 -4572 0 -4610 -26 -58 75 -55 -1688 -55 -1763 0 -1662 -3 -1688 55 -19 40
-17 4580 2 4614 29 53 -60 50 1684 51 1386 0 1627 -2 1651 -14z"/>
        <path d="M1111 4706 c-87 -48 -50 -186 49 -186 51 0 100 49 100 99 0 75 -83
124 -149 87z"/>
        <path d="M3911 4706 c-87 -48 -50 -186 49 -186 51 0 100 49 100 99 0 75 -83
124 -149 87z"/>
        <path d="M1463 4242 c-100 -35 -171 -114 -193 -216 -8 -35 -10 -223 -8 -596 3
-530 4 -546 24 -591 31 -66 78 -114 142 -146 l57 -28 1075 0 1075 0 57 28 c64
32 111 80 142 146 21 45 21 57 21 621 0 564 0 576 -21 621 -31 66 -78 114
-142 146 l-57 28 -1060 2 c-997 2 -1063 1 -1112 -15z m2146 -196 c50 -26 51
-38 51 -454 l0 -386 -223 221 c-226 225 -248 242 -304 228 -18 -4 -109 -87
-251 -228 l-222 -221 -323 321 c-211 211 -331 324 -349 328 -57 14 -79 -3
-305 -228 l-223 -221 0 289 c1 310 3 324 51 351 37 21 2058 20 2098 0z m-1269
-811 l375 -375 -588 0 c-638 0 -630 -1 -655 55 -7 14 -12 65 -12 113 l0 87
247 247 c137 137 250 248 253 248 3 0 174 -169 380 -375z m1068 -68 c258 -258
260 -262 201 -292 -23 -12 -83 -15 -316 -15 l-288 0 -100 100 -100 100 175
175 c96 96 177 175 180 175 3 0 114 -109 248 -243z"/>
        <path d="M1311 2186 c-67 -37 -65 -143 4 -174 37 -17 853 -17 890 0 29 13 55
55 55 88 0 33 -26 75 -55 88 -39 18 -861 16 -894 -2z"/>
        <path d="M2511 2186 c-87 -48 -50 -186 49 -186 51 0 100 49 100 99 0 75 -83
124 -149 87z"/>
        <path d="M2911 2186 c-67 -37 -65 -143 4 -174 37 -17 853 -17 890 0 29 13 55
55 55 88 0 33 -26 75 -55 88 -39 18 -861 16 -894 -2z"/>
        <path d="M1311 1586 c-67 -37 -65 -143 4 -174 37 -17 853 -17 890 0 29 13 55
55 55 88 0 33 -26 75 -55 88 -39 18 -861 16 -894 -2z"/>
        <path d="M2511 1586 c-87 -48 -50 -186 49 -186 51 0 100 49 100 99 0 75 -83
124 -149 87z"/>
        <path d="M2911 1586 c-67 -37 -65 -143 4 -174 37 -17 853 -17 890 0 29 13 55
55 55 88 0 33 -26 75 -55 88 -39 18 -861 16 -894 -2z"/>
        <path d="M1311 986 c-67 -37 -65 -143 4 -174 37 -17 853 -17 890 0 29 13 55
55 55 88 0 33 -26 75 -55 88 -39 18 -861 16 -894 -2z"/>
        <path d="M2511 986 c-87 -48 -50 -186 49 -186 51 0 100 49 100 99 0 75 -83
124 -149 87z"/>
        <path d="M2911 986 c-67 -37 -65 -143 4 -174 37 -17 853 -17 890 0 29 13 55
55 55 88 0 33 -26 75 -55 88 -39 18 -861 16 -894 -2z"/>
        <path d="M1111 586 c-87 -48 -50 -186 49 -186 51 0 100 49 100 99 0 75 -83
124 -149 87z"/>
        <path d="M3911 586 c-87 -48 -50 -186 49 -186 51 0 100 49 100 99 0 75 -83
124 -149 87z"/>
    </g>
</svg>
